<?xml version="1.0" encoding="utf-8"?>
<svg version="1.2" baseProfile="tiny"
	 xmlns="http://www.w3.org/2000/svg" xmlns:xlink="http://www.w3.org/1999/xlink" x="0px" y="0px" viewBox="0 0 256 256"
	 xml:space="preserve">
<path fill="#E0E0E0" d="M164.13,178.59L128,238.82l-36.13-60.22c-1.91-3.18-4.13-6.16-6.52-9c-18.49-21.91-17.42-54.71,3.22-75.35
	l0,0c21.78-21.78,57.08-21.78,78.86,0l0,0c20.64,20.64,21.72,53.44,3.22,75.35C168.26,172.43,166.04,175.41,164.13,178.59z"/>
<path fill="#606066" d="M140.07,202.07c-4.02,7.11-8.05,14.22-12.07,21.34c-4.02-7.11-8.05-14.22-12.07-21.34
	C123.98,202.07,132.02,202.07,140.07,202.07z"/>
<g>
	<circle fill="#6B99A7" cx="34.93" cy="106.34" r="11.59"/>
	<circle fill="#94BF6A" cx="53.59" cy="71.37" r="11.59"/>
	<circle fill="#C9D44E" cx="86.59" cy="48.84" r="11.59"/>
	<circle fill="#EAD647" cx="127.88" cy="38.68" r="11.59"/>
	<circle fill="#A969A5" cx="221.07" cy="107.45" r="11.59"/>
	<circle fill="#CB72A2" cx="202.41" cy="72.48" r="11.59"/>
	<circle fill="#D7923A" cx="169.41" cy="49.95" r="11.59"/>
</g>
<g>
</g>
<g>
</g>
<g>
</g>
<g>
</g>
<g>
</g>
<g>
</g>
<g>
</g>
<g>
</g>
<g>
</g>
<g>
</g>
<g>
</g>
<g>
</g>
<g>
</g>
<g>
</g>
<g>
</g>
</svg>
